<svg viewBox="0 0 22 22" fill="none" xmlns="http://www.w3.org/2000/svg"><path d="M19.521 22H2.482C1.11 22 0 20.89 0 19.521V2.481A2.48 2.48 0 012.48 0h17.041c1.37 0 2.48 1.11 2.48 2.48v17.04c0 1.37-1.109 2.478-2.48 2.478" fill="#D92B35"></path><path d="M5.623 17.413V8.158H4.598L5.926 4.58h2.57v12.833H5.622zM16.912 4.58H9.775a.286.286 0 00-.286.286v6.462c0 .317.256.574.571.574h4.35v3.09h-2.032v-1.679H9.59v3.812c0 .158.129.287.286.287h7.036a.286.286 0 00.287-.287V4.867a.287.287 0 00-.287-.286V4.58zM12.33 7.227c0-.158.129-.287.286-.287h1.475c.159 0 .287.129.287.287v2.245c0 .158-.13.287-.287.287h-1.475a.286.286 0 01-.286-.287V7.228z" fill="#fff"></path></svg>