<svg viewBox="0 0 54 36" fill="none" xmlns="http://www.w3.org/2000/svg"><g clip-path="url(#label_dubbing_svg__clip0_10140_56321)"><path fill="#000" fill-opacity="0.8" d="M0 0h54v36H0z"></path><path d="M20.282 26.533H8.947V8.744h10.26v2.651h-7.344v12.509h8.419v2.629zm2.148-7.953h-5.546v-2.782h5.546v-7.36h2.894v18.927H22.43v-8.784zM38.816 8.744v10.012H28.687V8.744h2.784v2.651h4.582v-2.65h2.763zm-7.345 7.602h4.582v-2.563h-4.581v2.563zm13.593-7.909v11.064H42.17V8.437h2.894zM40.57 27.564h-6.797c-1.52 0-2.696-.33-3.53-.986-.832-.643-1.249-1.556-1.249-2.739 0-1.095.417-1.993 1.25-2.694.833-.716 2.01-1.074 3.53-1.074h6.796c1.535 0 2.718.358 3.551 1.074.834.7 1.25 1.599 1.25 2.694 0 1.183-.416 2.096-1.25 2.739-.833.657-2.017.985-3.551.985zm-6.797-2.454h6.797c.584 0 1.03-.117 1.337-.35.322-.22.483-.526.483-.92 0-.395-.161-.71-.483-.943-.307-.248-.753-.372-1.337-.372h-6.797c-.57 0-1.015.124-1.337.372-.307.234-.46.548-.46.942 0 .395.153.701.46.92.322.234.767.35 1.337.35z" fill="#fff"></path></g><defs><clipPath id="label_dubbing_svg__clip0_10140_56321"><rect width="54" height="36" rx="4.5" fill="#fff"></rect></clipPath></defs></svg>