<svg viewBox="0 0 33 22" fill="none" xmlns="http://www.w3.org/2000/svg"><g clip-path="url(#label_new_svg__clip0_5239_157044)"><g clip-path="url(#label_new_svg__clip1_5239_157044)"><path fill="#FF153C" d="M0 0h33v22H0z"></path><path d="M9.18 11.425l-.07-2.817V5.5h1.839v11H9.04L7.05 9.853h-.104l.07 2.503V16.5h-1.85v-11h2.129l1.768 5.925h.116zM14.608 14.835h2.71V16.5h-4.653v-11h4.618v1.665h-2.675v2.886h2.443v1.642h-2.443v3.143zM25.609 13.124h.151l.21-1.99.756-5.634h2.059l-1.769 10.988h-2.49l-.895-5.447-.29-2.072h-.117l-.268 2.072-.93 5.459h-2.478l-1.733-11h2.058l.733 5.634.221 1.979h.14l.28-1.98 1-5.633h2.117l.989 5.634.256 1.99z" fill="#fff"></path></g></g><defs><clipPath id="label_new_svg__clip0_5239_157044"><rect width="33" height="22" rx="3" fill="#fff"></rect></clipPath><clipPath id="label_new_svg__clip1_5239_157044"><rect width="33" height="22" rx="2.75" fill="#fff"></rect></clipPath></defs></svg>