<svg width="26" height="4.5" viewBox="0 0 52 9" fill="none" xmlns="http://www.w3.org/2000/svg">
    <g clip-path="url(#clip0_121_5327)">
      <path d="M18.1729 2.50644V6.45215C18.1729 8.03968 17.32 8.96819 15.8019 8.96819C14.2838 8.96819 13.459 8.03968 13.459 6.45215V2.50644C13.459 0.927909 14.2957 0 15.8019 0C17.3295 0 18.1729 0.928509 18.1729 2.50644ZM16.589 2.24655C16.589 1.69857 16.2902 1.34625 15.83 1.34625C15.7173 1.347 15.606 1.3717 15.5035 1.41872C15.401 1.46573 15.3096 1.534 15.2352 1.61904C15.1609 1.70408 15.1053 1.80396 15.0721 1.91211C15.039 2.02026 15.029 2.13424 15.0428 2.24655V6.72104C15.0261 6.83274 15.0336 6.94674 15.0648 7.05526C15.096 7.16378 15.1501 7.26427 15.2235 7.34986C15.2969 7.43546 15.3878 7.50414 15.4901 7.55122C15.5923 7.5983 15.7034 7.62267 15.8159 7.62267C15.9284 7.62267 16.0396 7.5983 16.1418 7.55122C16.244 7.50414 16.3349 7.43546 16.4083 7.34986C16.4817 7.26427 16.5359 7.16378 16.567 7.05526C16.5982 6.94674 16.6057 6.83274 16.589 6.72104V2.24655Z" fill="white"/>
      <path d="M22.5186 8.86436L21.8612 5.82015H20.8397V8.86436H19.2744V0.0942383H21.6173C23.0422 0.0942383 23.895 0.864295 23.895 2.34919V3.43555C23.9059 3.75957 23.849 4.08227 23.7279 4.38281C23.6068 4.68334 23.4243 4.95504 23.1922 5.18033L24.0917 8.86496L22.5186 8.86436ZM21.3567 4.52071C21.9658 4.52071 22.3034 4.1864 22.3034 3.50037V2.44222C22.3034 1.76459 21.9568 1.42188 21.3567 1.42188H20.8601V4.52131L21.3567 4.52071Z" fill="white"/>
      <path d="M25.0186 0.0942383H26.5839V8.86436H25.0186V0.0942383Z" fill="white"/>
      <path d="M29.3739 8.96759C28.4086 8.95859 27.6406 8.22514 27.6406 6.85128V2.50644C27.6406 0.918906 28.4774 0 30.0212 0C31.5303 0 32.3079 0.826476 32.3079 2.11631V3.28609H30.7539V2.23695C30.7539 1.59653 30.4551 1.34565 30.0044 1.34565C29.8935 1.34804 29.7843 1.37362 29.6837 1.42074C29.5831 1.46787 29.4935 1.53551 29.4204 1.61936C29.3473 1.70321 29.2924 1.80142 29.2592 1.90775C29.2259 2.01408 29.2151 2.12619 29.2275 2.23695V6.72104C29.2275 7.36145 29.5556 7.62134 29.9961 7.62134C30.1023 7.61946 30.207 7.59616 30.304 7.55281C30.4011 7.50946 30.4884 7.44695 30.5609 7.369C30.6334 7.29105 30.6895 7.19926 30.726 7.09908C30.7624 6.9989 30.7784 6.89238 30.773 6.78586V5.42161H29.9859V4.14018H32.3103V8.86555H31.0073L30.8932 8.15792H30.7808C30.6729 8.43305 30.4749 8.66302 30.2193 8.80988C29.9637 8.95675 29.666 9.01175 29.3751 8.96579" fill="white"/>
      <path d="M33.3516 0.0942383H34.9169V8.86436H33.3516V0.0942383Z" fill="white"/>
      <path d="M39.1919 2.57246V0.0942383H40.6729V8.86436H39.1357L37.5327 3.56519H37.4485L37.5047 5.56026V8.86136H36.0146V0.0942383H37.73L39.1548 4.81841H39.2487L39.1919 2.57246Z" fill="white"/>
      <path d="M45.1106 7.05476L43.2452 7.03615L42.9643 8.86436H41.3506L43.0468 0.0942383H45.3526L47.0207 8.86436H45.3807L45.1106 7.05476ZM44.9044 5.72772L44.5015 3.06403L44.2296 1.4861H44.1268L43.8644 3.06403L43.452 5.72772H44.9044Z" fill="white"/>
      <path d="M51.5005 7.53743V8.86447H47.8643V0.09375H49.4296V7.53623L51.5005 7.53743Z" fill="white"/>
      <path d="M8.18159 0L6.24871 5.97079C6.23677 6.00847 6.21179 6.04062 6.17831 6.06142C6.14482 6.08223 6.10503 6.09032 6.06612 6.08423C6.02721 6.07814 5.99175 6.05827 5.96616 6.02822C5.94057 5.99817 5.92652 5.95992 5.92656 5.92037V0H0V2.6859H2.86407V9.003H8.49239L11.5531 0H8.18159Z" fill="#4763FF"/>
    </g>
    <defs>
      <clipPath id="clip0_121_5327">
        <rect width="51.5" height="9" fill="white"/>
      </clipPath>
    </defs>
  </svg>