<svg viewBox="0 0 54 36" fill="none" xmlns="http://www.w3.org/2000/svg"><g clip-path="url(#label_subtitle_svg__clip0_10140_56320)"><path fill="#000" fill-opacity="0.8" d="M0 0h54v36H0z"></path><path d="M8.321 8.744h10.52v2.651h-4.142a62.52 62.52 0 01-.132 2.432 28.324 28.324 0 01-.263 2.3 23.688 23.688 0 002.28 4.71 18.472 18.472 0 003.353 3.965c-.19.16-.38.314-.57.46l-.548.46c-.19.16-.38.314-.57.46-.19.161-.372.314-.548.46a19.542 19.542 0 01-2.433-2.87 26.337 26.337 0 01-1.972-3.307 23.839 23.839 0 01-1.38 3.33 20.406 20.406 0 01-1.842 3 55.844 55.844 0 01-1.315-.678 56.165 56.165 0 01-1.27-.723c1.49-2.045 2.57-4.185 3.243-6.42.672-2.234 1.03-4.76 1.074-7.579H8.32v-2.65zm15.977 9.596v9.025h-2.915V8.438h2.915v7.12h2.454v2.782h-2.454zM37.938 8.744v9.88h-9.884v-9.88h9.884zm-7.1 7.449h4.317v-5.017h-4.318v5.017zm15.647-3.571v2.76h-2.454v4.316h-2.915V8.438h2.915v4.184h2.454zm-2.454 8.018v6.922h-2.915v-4.315H28.25V20.64h15.78z" fill="#fff"></path></g><defs><clipPath id="label_subtitle_svg__clip0_10140_56320"><rect width="54" height="36" rx="4.5" fill="#fff"></rect></clipPath></defs></svg>